{"title":"Transformers 3 Dark Of The Moon *2011* [PPVRip.XviD-miguel] [ENG","uid":6651324,"size":1582673316,"categoryP":"video","categoryS":"movies","magnet":"?xt=urn:btih:7bd803349b939093125495a2ba5df65d3fefee00&amp;dn=Transformers+3+Dark+Of+The+Moon+%2A2011%2A+%5BPPVRip.XviD-miguel%5D+%5BENG&amp;tr=udp%3A%2F%2Ftracker.openbittorrent.com%3A80&amp;tr=udp%3A%2F%2Fopen.demonii.com%3A1337&amp;tr=udp%3A%2F%2Ftracker.coppersurfer.tk%3A6969&amp;tr=udp%3A%2F%2Fexodus.desync.com%3A6969","seeders":0,"leechers":0,"uploader":"miguel1983","files":-1,"time":1315160132,"description":" &lt;a href=&quot;http://img546.imageshack.us/img546/9283/transformers3darkofthemre.jpg&quot; rel=&quot;nofollow&quot; target=&quot;_NEW&quot;&gt;http://img546.imageshack.us/img546/9283/transformers3darkofthemre.jpg&lt;/a&gt;\n\nCountry.......: USA\nGenre.........: Action, Sci-Fi, Adventure\nDate release..: 23.06.2011 [World]\nDirector......: Michael Bay\nWriters.......: Ehren Kruger\nDuration......: 154 min.\nMore..........: http://www.imdb.com/title/tt1399103\nTrailer.......: http://www.imdb.com/video/imdb/vi543989017\nTrailer.......:\n\nPilot :\nThe Autobots learn of a Cybertronian spacecraft hidden on the Moon, and race against the Decepticons to reach it and to learn its secrets.\n\nCats :\nShia LaBeouf   \t ...  \tSam Witwicky\nJosh Duhamel \t... \tLennox\nJohn Turturro \t... \tSimmons\nTyrese Gibson \t... \tEpps\nRosie Huntington Whiteley \t... \tCarly Spencer\nPatrick Dempsey \t... \tDylan\nRich Hutchman \t... \tEngineer\nFrances McDormand \t... \tMearing\nKevin Dunn \t... \tRon Witwicky\nJohn Malkovich \t... \tBruce Brazos\nJulie White \t... \tJudy Witwicky\nAlan Tudyk \t... \tDutch\nKen Jeong \t... \tJerry Wang\nGlenn Morshower \t... \tGeneral Morshower\nLester Speight \t... \tEddie \n\nData Technical :\n!!! SAMPLE !!!\nAudio.....: English\nSubtitles.: English .srt, Polish .txt\nFormat                           : AVI\nFormat/Info                      : Audio Video Interleave\nFile size                        : 1.47 GiB\nDuration                         : 2h 34mn\nOverall bit rate                 : 1 362 Kbps\nVideo\nID                               : 0\nFormat                           : MPEG-4 Visual\nFormat settings, BVOP            : Yes\nFormat settings, QPel            : No\nFormat settings, GMC             : No warppoints\nFormat settings, Matrix          : Default (H.263)\nCodec ID                         : DX50\nCodec ID/Hint                    : DivX 5\nDuration                         : 2h 34mn\nBit rate                         : 1 223 Kbps\nWidth                            : 640 pixels\nHeight                           : 480 pixels\nDisplay aspect ratio             : 4:3\nFrame rate                       : 29.970 fps\nColor space                      : YUV\nChroma subsampling               : 4:2:0\nBit depth                        : 8 bits\nScan type                        : Progressive\nBits/(Pixel*Frame)               : 0.133\nStream size                      : 1.32 GiB (90%)\nWriting library                  : DivX 2151n\nAudio\nID                               : 1\nFormat                           : MPEG Audio\nFormat version                   : Version 1\nFormat profile                   : Layer 3\nCodec ID                         : 55\nCodec ID/Hint                    : MP3\nDuration                         : 2h 34mn\nBit rate mode                    : Constant\nBit rate                         : 128 Kbps\nChannel(s)                       : 2 channels\nSampling rate                    : 48.0 KHz\nStream size                      : 141 MiB (9%)\nAlignment                        : Aligned on interleaves\nInterleave, duration             : 33 ms (1.00 video frame)\n\nScreen : &lt;a href=&quot;\nhttp://img835.imageshack.us/img835/4295/transformers3darkofthemg.jpg&quot; rel=&quot;nofollow&quot; target=&quot;_NEW&quot;&gt;\nhttp://img835.imageshack.us/img835/4295/transformers3darkofthemg.jpg&lt;/a&gt; &lt;a href=&quot;\nhttp://img38.imageshack.us/img38/904/transformers3darkofthemz.jpg&quot; rel=&quot;nofollow&quot; target=&quot;_NEW&quot;&gt;\nhttp://img38.imageshack.us/img38/904/transformers3darkofthemz.jpg&lt;/a&gt; &lt;a href=&quot;\nhttp://img89.imageshack.us/img89/9605/transformers3darkofthemx.jpg&quot; rel=&quot;nofollow&quot; target=&quot;_NEW&quot;&gt;\nhttp://img89.imageshack.us/img89/9605/transformers3darkofthemx.jpg&lt;/a&gt; &lt;a href=&quot;\nhttp://img832.imageshack.us/img832/452/transformers3darkofthemo.jpg&quot; rel=&quot;nofollow&quot; target=&quot;_NEW&quot;&gt;\nhttp://img832.imageshack.us/img832/452/transformers3darkofthemo.jpg&lt;/a&gt; &lt;a href=&quot;\nhttp://img217.imageshack.us/img217/8241/transformers3darkofthemk.jpg&quot; rel=&quot;nofollow&quot; target=&quot;_NEW&quot;&gt;\nhttp://img217.imageshack.us/img217/8241/transformers3darkofthemk.jpg&lt;/a&gt;","torrent":{"xt":"urn:btih:7bd803349b939093125495a2ba5df65d3fefee00","amp;dn":"Transformers+3+Dark+Of+The+Moon+%2A2011%2A+%5BPPVRip.XviD-miguel%5D+%5BENG","amp;tr":["udp%3A%2F%2Ftracker.openbittorrent.com%3A80","udp%3A%2F%2Fopen.demonii.com%3A1337","udp%3A%2F%2Ftracker.coppersurfer.tk%3A6969","udp%3A%2F%2Fexodus.desync.com%3A6969"],"infoHash":"7bd803349b939093125495a2ba5df65d3fefee00","infoHashBuffer":{"type":"Buffer","data":[123,216,3,52,155,147,144,147,18,84,149,162,186,93,246,93,63,239,238,0]},"announce":[],"urlList":[]}}